<?xml version="1.0" encoding="iso-8859-1"?>
<!-- Generator: Adobe Illustrator 19.0.0, SVG Export Plug-In . SVG Version: 6.00 Build 0)  -->
<svg version="1.1" id="Capa_1" xmlns="http://www.w3.org/2000/svg" xmlns:xlink="http://www.w3.org/1999/xlink" x="0px" y="0px"
	 viewBox="0 0 511.999 511.999" style="enable-background:new 0 0 511.999 511.999;" xml:space="preserve">
<path style="fill:#49B6F2;" d="M317.946,355.943H212.091c-45.69,0-82.862,37.172-82.862,82.862v65.694c0,4.142,3.358,7.5,7.5,7.5
	h256.578c4.143,0,7.5-3.358,7.5-7.5v-65.694C400.808,393.115,363.636,355.943,317.946,355.943z"/>
<path style="fill:#2E93CC;" d="M317.946,355.943h-26.667c45.689,0,82.861,37.172,82.861,82.862v65.694c0,4.142-3.357,7.5-7.5,7.5
	h26.667c4.143,0,7.5-3.358,7.5-7.5v-65.694C400.808,393.115,363.636,355.943,317.946,355.943z"/>
<path style="fill:#FA9E3E;" d="M307.118,260.229h-84.2c-4.142,0-7.5,3.358-7.5,7.5v95.35c0,2.666,1.415,5.132,3.717,6.476
	l42.1,24.59c1.168,0.683,2.476,1.024,3.783,1.024c1.307,0,2.614-0.341,3.782-1.024l42.1-24.59c2.303-1.344,3.718-3.81,3.718-6.476
	v-95.35C314.618,263.587,311.261,260.229,307.118,260.229z"/>
<path style="fill:#D9D4D4;" d="M337.558,359.39l-14.585-13.833c-2.605-2.472-6.601-2.748-9.525-0.658l-48.429,34.651l-48.43-34.651
	c-2.924-2.092-6.919-1.815-9.525,0.658l-14.585,13.833c-2.303,2.184-2.981,5.582-1.694,8.483l28.063,63.255
	c1.002,2.259,3.054,3.88,5.484,4.332c0.457,0.085,0.915,0.126,1.371,0.126c1.971,0,3.884-0.777,5.303-2.197l34.011-34.011
	l34.01,34.011c1.42,1.419,3.333,2.197,5.304,2.197c0.456,0,0.915-0.042,1.372-0.126c2.43-0.452,4.482-2.073,5.483-4.332
	l28.064-63.255C340.539,364.972,339.86,361.575,337.558,359.39z"/>
<g>
	<path style="fill:#3D5868;" d="M344.453,414.673c-1.493,0-2.998-0.443-4.305-1.369c-3.38-2.394-4.204-7.04-1.81-10.42
		c0.103-0.146,0.261-0.358,0.374-0.496c7.458-9.079,10.67-20.489,9.046-32.126c-1.623-11.636-7.836-21.728-17.492-28.418
		l-40.679-28.18c-3.405-2.358-4.254-7.031-1.895-10.436c2.357-3.405,7.029-4.254,10.436-1.894l40.68,28.18
		c12.952,8.973,21.629,23.069,23.807,38.675c2.175,15.585-2.297,31.499-12.27,43.669
		C348.87,413.691,346.675,414.673,344.453,414.673z"/>
	<path style="fill:#3D5868;" d="M185.536,414.697c-2.26,0-4.481-1.022-5.942-2.958c-9.904-12.156-14.339-28.016-12.171-43.551
		c2.178-15.605,10.855-29.702,23.805-38.674l40.68-28.18c3.406-2.358,8.078-1.51,10.436,1.894c2.359,3.405,1.511,8.078-1.894,10.436
		l-40.68,28.18c-9.656,6.689-15.868,16.782-17.491,28.417c-1.624,11.638,1.588,23.047,9.046,32.127
		c0.106,0.129,0.207,0.261,0.304,0.397c2.41,3.369,1.657,8.089-1.712,10.499C188.585,414.236,187.052,414.697,185.536,414.697z"/>
</g>
<rect x="121.019" y="125.999" style="fill:#696970;" width="288" height="129"/>
<g>
	<path style="fill:#FA9E3E;" d="M134.858,223.989h49.369v56.61h-49.369c-15.632,0-28.305-12.672-28.305-28.305
		S119.225,223.989,134.858,223.989z"/>
	<path style="fill:#FA9E3E;" d="M395.179,223.989H345.81v56.61h49.369c15.632,0,28.305-12.672,28.305-28.305
		S410.812,223.989,395.179,223.989z"/>
</g>
<path style="fill:#FFB56B;" d="M265.019,342.789L265.019,342.789c-61.919,0-112.115-50.195-112.115-112.115V117.28h224.229v113.394
	C377.133,292.594,326.938,342.789,265.019,342.789z"/>
<path style="fill:#EF9245;" d="M353.799,117.28v125.062c0,53.578-41.949,97.354-94.795,100.286c1.992,0.105,3.996,0.161,6.014,0.161
	l0,0c61.919,0,112.115-50.195,112.115-112.115V117.28H353.799z"/>
<g>
	<path style="fill:#19303F;" d="M319.342,232.961c-4.143,0-7.5-3.358-7.5-7.5v-2c0-4.142,3.357-7.5,7.5-7.5s7.5,3.358,7.5,7.5v2
		C326.842,229.604,323.484,232.961,319.342,232.961z"/>
	<path style="fill:#19303F;" d="M210.695,232.961c-4.142,0-7.5-3.358-7.5-7.5v-2c0-4.142,3.358-7.5,7.5-7.5s7.5,3.358,7.5,7.5v2
		C218.195,229.604,214.837,232.961,210.695,232.961z"/>
	<path style="fill:#19303F;" d="M265.018,288.483c-13.494,0-26.142-6.631-33.833-17.739c-2.358-3.405-1.509-8.078,1.897-10.436
		c3.405-2.358,8.078-1.509,10.435,1.897c4.89,7.062,12.928,11.278,21.501,11.278s16.61-4.216,21.501-11.279
		c2.358-3.405,7.029-4.254,10.435-1.896c3.405,2.358,4.255,7.03,1.897,10.436C291.16,281.852,278.512,288.483,265.018,288.483z"/>
</g>
<path style="fill:#484655;" d="M379.954,45.37h-120.95c-67.879,0-112.54-6.821-168.262-44.104c-1.825-1.22-4.091-1.581-6.206-0.985
	c-2.113,0.596-3.859,2.088-4.777,4.082c-8.885,19.301-4.672,41.416,0.426,56.569c3.453,10.263,8.405,20.477,14.02,29.208
	c-7.22-1.626-12.787-3.549-12.88-3.581c-2.104-0.737-4.427-0.499-6.337,0.649c-1.911,1.147-3.213,3.085-3.552,5.289
	c-0.136,0.884-3.136,21.864,13.757,41.556c18.848,21.971,53.893,33.112,104.16,33.112h190.602c33.579,0,60.897-27.319,60.897-60.898
	S413.533,45.37,379.954,45.37z"/>
<path style="fill:#35343F;" d="M379.954,45.37h-26.148c33.579,0,60.897,27.319,60.897,60.898s-27.318,60.898-60.897,60.898h26.148
	c33.579,0,60.897-27.319,60.897-60.898S413.533,45.37,379.954,45.37z"/>
<path style="fill:#484655;" d="M328.252,391.043h-25.256l-1.433-7.543c-1.48-7.793-8.311-13.449-16.243-13.449h-40.604
	c-7.932,0-14.764,5.656-16.243,13.449l-1.432,7.542h-25.257c-14.872,0-26.971,12.099-26.971,26.971v67.014
	c0,14.872,12.099,26.971,26.971,26.971h126.467c14.872,0,26.972-12.099,26.972-26.971v-67.014
	C355.224,403.142,343.124,391.043,328.252,391.043z"/>
<path style="fill:#35343F;" d="M328.252,391.043h-24.676v0.056c14.103,0.86,25.315,12.6,25.315,26.915v67.014
	c0,14.872-12.1,26.971-26.972,26.971h26.333c14.872,0,26.972-12.099,26.972-26.971v-67.014
	C355.224,403.142,343.124,391.043,328.252,391.043z"/>
<path style="fill:#FFB700;" d="M328.252,391.043h-25.256l-1.433-7.543c-1.48-7.793-8.311-13.449-16.243-13.449h-40.604
	c-7.932,0-14.764,5.656-16.243,13.449l-1.432,7.542h-25.257c-14.872,0-26.971,12.099-26.971,26.971v22.641h180.41v-22.641
	C355.224,403.142,343.124,391.043,328.252,391.043z"/>
<path style="fill:#D69400;" d="M328.252,391.043h-24.676v0.056c14.103,0.86,25.315,12.6,25.315,26.915v22.641h26.333v-22.641
	C355.224,403.142,343.124,391.043,328.252,391.043z"/>
<circle style="fill:#5CDBF1;" cx="265.019" cy="451.519" r="30.05"/>
<path style="fill:#3D5868;" d="M265.018,489.075c-20.708,0-37.554-16.847-37.554-37.554c0-20.708,16.847-37.554,37.554-37.554
	s37.554,16.847,37.554,37.554S285.725,489.075,265.018,489.075z M265.018,428.966c-12.437,0-22.554,10.118-22.554,22.554
	c0,12.436,10.118,22.554,22.554,22.554s22.554-10.118,22.554-22.554S277.455,428.966,265.018,428.966z"/>
<g>
</g>
<g>
</g>
<g>
</g>
<g>
</g>
<g>
</g>
<g>
</g>
<g>
</g>
<g>
</g>
<g>
</g>
<g>
</g>
<g>
</g>
<g>
</g>
<g>
</g>
<g>
</g>
<g>
</g>
</svg>
