<?xml version="1.0" encoding="iso-8859-1"?>
<!-- Generator: Adobe Illustrator 19.0.0, SVG Export Plug-In . SVG Version: 6.00 Build 0)  -->
<svg version="1.1" id="Capa_1" xmlns="http://www.w3.org/2000/svg" xmlns:xlink="http://www.w3.org/1999/xlink" x="0px" y="0px"
	 viewBox="0 0 512 512" style="enable-background:new 0 0 512 512;" xml:space="preserve">
<circle style="fill:#0D0A22;" cx="256" cy="256" r="256"/>
<path style="fill:#B3EBF8;" d="M498.971,175.167c-1.087-0.805-2.226-1.536-3.438-2.205L196.318,7.002l-5.35-2.967
	c-7.461-4.148-16.102-5.13-24.315-2.779C158.451,3.607,151.648,9.02,147.5,16.48l-5.747,10.365L1.153,280.346
	c0.711,7.565,1.745,15.036,3.114,22.392L159.381,23.072c1.546-2.79,3.751-5.089,6.395-6.719c1.421-0.878,2.978-1.567,4.618-2.038
	c0.846-0.24,1.714-0.428,2.57-0.543c0.846-0.115,1.693-0.178,2.529-0.178c3.072,0,6.123,0.784,8.892,2.309l304.566,168.928
	c4.294,2.382,7.408,6.301,8.756,11.024c1.358,4.723,0.784,9.686-1.599,13.981l-160.61,289.582
	c6.646-2.173,13.176-4.608,19.581-7.304l152.91-275.685c0.261-0.47,0.512-0.951,0.742-1.432
	C515.595,201.049,511.322,184.226,498.971,175.167z M38.288,390.739l218.634,121.249c8.631-0.021,17.157-0.481,25.558-1.337
	L25.906,368.336C29.668,376.027,33.805,383.508,38.288,390.739z"/>
<g>
	<path style="fill:#2BBBFA;" d="M129.686,225.197h119.108l-43.562-72.025C170.549,164.625,142.732,191.264,129.686,225.197z"/>
	<path style="fill:#2BBBFA;" d="M121.604,268.729c0,29.034,10.237,55.716,27.271,76.654l59.891-103.947h-84.037
		C122.708,250.217,121.604,259.343,121.604,268.729z"/>
	<path style="fill:#2BBBFA;" d="M243.281,147.048c-7.365,0-14.567,0.694-21.575,1.955l62.206,102.786l40.778-73.409
		C303.111,158.918,274.558,147.048,243.281,147.048z"/>
	<path style="fill:#2BBBFA;" d="M364.96,268.729c0-29.717-10.723-56.967-28.484-78.12l-58.413,105.108l84.008-0.718
		C363.944,286.532,364.96,277.749,364.96,268.729z"/>
	<path style="fill:#2BBBFA;" d="M243.281,390.407c6.861,0,13.58-0.6,20.135-1.696l-61.024-103.673l-41.9,72.75
		C182.225,378.006,211.326,390.407,243.281,390.407z"/>
	<path style="fill:#2BBBFA;" d="M237.264,312.318l42.657,72.44c35.681-11.292,64.287-38.616,77.346-73.479L237.264,312.318z"/>
</g>
<g>
</g>
<g>
</g>
<g>
</g>
<g>
</g>
<g>
</g>
<g>
</g>
<g>
</g>
<g>
</g>
<g>
</g>
<g>
</g>
<g>
</g>
<g>
</g>
<g>
</g>
<g>
</g>
<g>
</g>
</svg>
